<?xml version="1.0" encoding="UTF-8"?><svg id="Layer_2" xmlns="http://www.w3.org/2000/svg" viewBox="0 0 496.17 376.68"><defs><style>.cls-1{fill:#fff;}</style></defs><g id="Layer_1-2"><path class="cls-1" d="m411.62,277.95c-13.67-23.8-31.9-59.74-43.04-88.09l13.16-12.66c26.33-24.81,62.27-33.92,81-35.44v-4.56c-18.73,1.01-35.95,1.52-53.16,1.52s-45.56-1.01-58.73-1.52v4.56c22.78,2.53,33.42,15.19,9.62,41.51-19.24,21.26-51.13,55.19-63.28,67.84V83.54c0-22.28.5-66.83,2.53-80.5l-3.04-3.04c-6.58,2.03-97.71,27.85-104.8,29.37l.51,4.05,29.16,7.05c1.53.37,2.86,1.31,3.66,2.66,6,10.27,8.19,32.13,8.19,56.61v210.61c0,14.23-4.78,30.83-14.24,34.43s-29.3-17.22-29.3-45.57c-.51-23.8.51-65.82.51-92.15,0-59.23-29.87-79.99-69.36-79.99-19.24,0-43.54,5.57-62.78,14.68-26.33,12.15-46.07,22.78-46.07,42.53,0,14.68,11.14,27.34,32.4,27.34,1.03,0,2.16-.05,3.35-.15,6.81-.56,13.31-3.05,18.93-6.94h0c-2.53-16.2-3.04-36.96-1.52-56.2h0c2.78-3.13,6.78-4.9,10.97-4.93,2.68-.02,5.3.1,7.77.38,15.69,1.01,27.34,7.09,34.43,25.82,4.56,10.63,7.09,26.33,7.09,48.1.51,4.05.51,12.15.51,16.2-31.39,7.09-66.33,16.2-94.17,25.31-19.01,12.66-31.9,28.36-31.9,59.74.51,35.44,26.33,54.17,59.74,53.67,32.4-1.01,51.64-18.23,67.34-39.49.51,11.65,5.57,21.26,10.63,26.83,3.84,4.43,8.54,7.48,13.9,9.66,6.17,2.5,12.86,3.45,19.52,3.23,24.74-.83,69.09-1.24,90.62-1.24,22.78,0,42.02.5,68.85,1.52v-4.56c-29.36-3.55-33.41-21.77-33.41-58.73v-50.63c6.07-6.07,21.26-20.76,27.34-26.32,6.07,20.25,16.71,44.55,25.31,61.76,12.66,25.31,24.3,43.04,35.95,55.69,16.71,16.71,36.45,26.33,73.92,26.33,14.18,0,24.81-1.52,35.44-3.55l1.01-4.56c-23.8-1.52-45.57-22.28-84.55-90.63Zm-286.05,42.02c0,13.16-16.71,25.82-34.43,26.33-16.2,0-29.36-12.66-29.87-40.5-.51-22.28,7.59-42.02,17.72-48.6,11.64-6.08,30.88-12.66,47.08-18.23,0,30.88-.51,67.34-.51,81Z"/></g></svg>